<svg width="1438" height="841" viewBox="0 0 1438 841" fill="none" xmlns="http://www.w3.org/2000/svg">
<g clip-path="url(#clip0_66_5)">
<rect width="1438" height="841" fill="url(#paint0_linear_66_5)"/>
<g opacity="0.2">
<path d="M1154.18 1790.77C1337.16 1741.74 1497.49 1630.78 1607.83 1476.8C1718.17 1322.81 1771.71 1135.33 1759.32 946.301C1746.93 757.269 1669.38 578.381 1539.88 440.117C1410.38 301.854 1236.95 212.769 1049.13 188.043C861.316 163.316 670.737 204.478 509.866 304.513C348.995 404.549 227.787 557.27 166.895 736.654C106.002 916.038 109.192 1110.99 175.921 1288.28C242.651 1465.58 368.791 1614.25 532.848 1708.97L573.789 1638.06C426.137 1552.81 312.611 1419 252.555 1259.44C192.499 1099.87 189.627 924.419 244.431 762.974C299.234 601.528 408.321 464.08 553.105 374.047C697.889 284.015 869.41 246.97 1038.45 269.224C1207.48 291.478 1363.57 371.654 1480.12 496.091C1596.67 620.528 1666.46 781.527 1677.61 951.656C1688.76 1121.78 1640.58 1290.52 1541.27 1429.1C1441.96 1567.69 1297.67 1667.55 1132.99 1711.68L1154.18 1790.77Z" fill="url(#paint1_linear_66_5)"/>
<path opacity="0.7" d="M1123.75 1677.19C1280.45 1635.2 1417.75 1540.17 1512.25 1408.3C1606.74 1276.43 1652.59 1115.88 1641.98 953.991C1631.37 792.106 1564.96 638.908 1454.06 520.5C1343.16 402.092 1194.63 325.801 1033.78 304.625C872.94 283.45 709.729 318.7 571.96 404.37C434.192 490.04 330.391 620.829 278.243 774.452C226.095 928.075 228.827 1095.03 285.973 1246.86C343.12 1398.7 451.145 1526.02 591.642 1607.13L626.704 1546.41C500.256 1473.4 403.033 1358.81 351.601 1222.16C300.17 1085.51 297.711 935.253 344.644 796.992C391.577 658.731 484.998 541.021 608.99 463.918C732.982 386.815 879.872 355.09 1024.63 374.148C1169.39 393.206 1303.07 461.868 1402.88 568.435C1502.69 675.002 1562.46 812.881 1572.01 958.578C1581.56 1104.27 1540.3 1248.78 1455.25 1367.46C1370.2 1486.14 1246.63 1571.66 1105.6 1609.45L1123.75 1677.19Z" fill="url(#paint2_linear_66_5)"/>
<path opacity="0.4" d="M1093.41 1569.52C1224.8 1534.31 1339.92 1454.64 1419.15 1344.07C1498.38 1233.51 1536.82 1098.89 1527.92 963.156C1519.03 827.424 1463.34 698.976 1370.36 599.697C1277.38 500.419 1152.84 436.453 1017.98 418.698C883.125 400.943 746.281 430.499 630.769 502.328C515.258 574.158 428.226 683.817 384.503 812.622C340.78 941.426 343.07 1081.41 390.985 1208.71C438.899 1336.02 529.472 1442.77 647.272 1510.78L676.669 1459.86C570.649 1398.65 489.133 1302.58 446.01 1188C402.888 1073.43 400.826 947.445 440.177 831.521C479.528 715.596 557.857 616.903 661.817 552.256C765.777 487.61 888.936 461.01 1010.31 476.989C1131.68 492.968 1243.76 550.538 1327.45 639.888C1411.13 729.239 1461.25 844.843 1469.26 967.002C1477.26 1089.16 1442.67 1210.32 1371.36 1309.83C1300.05 1409.34 1196.45 1481.04 1078.2 1512.73L1093.41 1569.52Z" fill="url(#paint3_linear_66_5)"/>
<path opacity="0.2" d="M1067.43 1472.56C1176.39 1443.36 1271.85 1377.29 1337.55 1285.6C1403.26 1193.91 1435.14 1082.28 1427.76 969.722C1420.38 857.164 1374.2 750.646 1297.1 668.317C1219.99 585.988 1116.72 532.943 1004.88 518.22C893.047 503.497 779.567 528.006 683.777 587.572C587.987 647.138 515.814 738.075 479.556 844.889C443.298 951.702 445.197 1067.78 484.931 1173.35C524.665 1278.92 599.774 1367.45 697.462 1423.85L721.84 1381.63C633.921 1330.87 566.322 1251.19 530.562 1156.18C494.802 1061.17 493.092 956.693 525.724 860.561C558.357 764.428 623.312 682.585 709.523 628.976C795.734 575.366 897.866 553.308 998.518 566.559C1099.17 579.81 1192.11 627.551 1261.51 701.646C1330.91 775.742 1372.47 871.608 1379.11 972.911C1385.75 1074.21 1357.06 1174.68 1297.92 1257.2C1238.79 1339.72 1152.87 1399.19 1054.81 1425.46L1067.43 1472.56Z" fill="url(#paint4_linear_66_5)"/>
</g>
</g>
<defs>
<linearGradient id="paint0_linear_66_5" x1="719" y1="0" x2="719" y2="841" gradientUnits="userSpaceOnUse">
<stop stop-color="#242424"/>
<stop offset="1" stop-color="#3D3D3D"/>
</linearGradient>
<linearGradient id="paint1_linear_66_5" x1="1733.17" y1="787.928" x2="151.341" y2="1211.78" gradientUnits="userSpaceOnUse">
<stop stop-color="white"/>
<stop offset="1" stop-color="#D9D9D9" stop-opacity="0.54"/>
</linearGradient>
<linearGradient id="paint2_linear_66_5" x1="1619.59" y1="818.363" x2="264.922" y2="1181.34" gradientUnits="userSpaceOnUse">
<stop stop-color="white"/>
<stop offset="1" stop-color="#D9D9D9" stop-opacity="0.54"/>
</linearGradient>
<linearGradient id="paint3_linear_66_5" x1="1509.15" y1="849.439" x2="373.335" y2="1153.78" gradientUnits="userSpaceOnUse">
<stop stop-color="white"/>
<stop offset="1" stop-color="#D9D9D9" stop-opacity="0.54"/>
</linearGradient>
<linearGradient id="paint4_linear_66_5" x1="1412.19" y1="875.42" x2="470.294" y2="1127.8" gradientUnits="userSpaceOnUse">
<stop stop-color="white"/>
<stop offset="1" stop-color="#D9D9D9" stop-opacity="0.54"/>
</linearGradient>
<clipPath id="clip0_66_5">
<rect width="1438" height="841" fill="white"/>
</clipPath>
</defs>
</svg>
