<svg width="187" height="179" viewBox="0 0 187 179" fill="none" xmlns="http://www.w3.org/2000/svg">
<rect x="0.403809" y="0.873535" width="186.237" height="178.001" rx="21.6444" fill="url(#paint0_linear_84_24)"/>
<path d="M52.4066 63.5242L33.8859 50.3987L15.3652 63.5242V21.5227C15.3652 20.1302 15.9227 18.7948 16.9151 17.8102C17.9075 16.8256 19.2534 16.2725 20.6569 16.2725H47.115C48.5184 16.2725 49.8643 16.8256 50.8567 17.8102C51.8491 18.7948 52.4066 20.1302 52.4066 21.5227V63.5242Z" fill="white"/>
<path d="M33.2735 160.129C29.8711 160.186 26.8211 159.586 24.1233 158.331C21.4638 157.076 19.3691 155.294 17.8392 152.987C16.3093 150.68 15.5194 148.036 15.4695 145.054L15.2931 134.503C15.2433 131.521 15.9255 128.871 17.3399 126.553C18.7918 124.196 20.807 122.365 23.3855 121.06C25.9633 119.717 28.9343 119.017 32.2984 118.961C35.6625 118.905 38.653 119.371 41.2698 120.36C43.9242 121.31 45.9928 122.671 47.4755 124.443C48.9582 126.216 49.7191 128.268 49.7581 130.6C49.7817 132.014 49.3224 133.131 48.3801 133.95C47.4761 134.768 46.2403 135.19 44.6729 135.216C43.9084 135.229 43.0654 135.128 42.1441 134.914C42.2052 133.996 42.2284 133.097 42.2137 132.217C42.1798 130.191 41.254 128.562 39.4361 127.331C37.6183 126.099 35.2758 125.508 32.4086 125.556C29.5797 125.603 27.2803 126.444 25.5104 128.08C23.7787 129.715 22.9343 131.813 22.9771 134.374L23.1535 144.926C23.1963 147.487 24.149 149.574 26.0114 151.187C27.8739 152.8 30.2578 153.583 33.1632 153.534C35.9921 153.487 38.275 152.799 40.0118 151.469C41.7862 150.101 42.6558 148.366 42.6206 146.264L42.5909 144.486L37.6594 144.568C36.2067 144.593 35.0124 144.058 34.0763 142.965C33.1397 141.833 32.6563 140.369 32.6263 138.572L46.5607 138.339C47.6311 138.322 48.4966 138.632 49.1574 139.271C49.8182 139.91 50.1575 140.765 50.1754 141.835L50.2502 146.308C50.2943 148.946 49.6072 151.309 48.189 153.398C46.7702 155.448 44.7515 157.069 42.1329 158.26C39.5525 159.45 36.5994 160.073 33.2735 160.129ZM67.1709 159.562C64.8007 159.602 62.6331 159.179 60.6681 158.294C58.7025 157.371 57.1328 156.116 55.9591 154.53C54.7847 152.905 54.1806 151.08 54.1467 149.053L54.0192 141.427C53.9834 139.286 54.5437 137.346 55.7 135.605C56.8564 133.865 58.4011 132.482 60.3341 131.455C62.3054 130.428 64.4379 129.896 66.7316 129.857C68.9871 129.819 71.0594 130.263 72.9486 131.187C74.8754 132.073 76.4072 133.347 77.5439 135.011C78.6801 136.636 79.266 138.519 79.3018 140.66L79.3555 143.871C79.3695 144.712 79.0564 145.425 78.4161 146.009C77.8141 146.593 77.0352 146.893 76.0794 146.909L61.0555 147.16L61.0766 148.421C61.1041 150.065 61.6235 151.395 62.6347 152.41C63.6459 153.426 65.1454 153.917 67.1333 153.884C69.0447 153.852 70.4522 153.408 71.3556 152.551C72.2973 151.694 72.7569 150.597 72.7345 149.259C73.4214 149.171 73.8986 149.125 74.1662 149.12C75.5807 149.097 76.6947 149.403 77.5084 150.04C78.3214 150.638 78.7375 151.51 78.7567 152.657C78.7752 153.766 78.2771 154.845 77.2621 155.894C76.2472 156.944 74.8468 157.808 73.0609 158.488C71.275 159.168 69.3117 159.526 67.1709 159.562ZM72.8402 141.858L72.822 140.768C72.7952 139.163 72.2191 137.872 71.0939 136.897C69.9686 135.921 68.5267 135.448 66.7682 135.478C65.0097 135.507 63.5844 136.028 62.4924 137.041C61.438 138.014 60.9245 139.323 60.952 140.967L60.9702 142.056L72.8402 141.858ZM89.3514 126.783C87.9752 126.806 86.8216 126.424 85.8907 125.636C84.9974 124.81 84.5398 123.747 84.5181 122.447C84.497 121.186 84.9194 120.146 85.7852 119.329C86.6887 118.472 87.8285 118.033 89.2047 118.01C90.581 117.987 91.7157 118.388 92.6091 119.215C93.54 120.002 94.016 121.027 94.0371 122.288C94.0588 123.588 93.618 124.666 92.7145 125.522C91.8487 126.34 90.7277 126.76 89.3514 126.783ZM85.8567 133.897C85.8305 132.329 86.4045 131.211 87.5788 130.541C88.7523 129.833 90.5433 129.459 92.9518 129.419L93.3755 154.764C93.4011 156.294 92.8271 157.412 91.6535 158.12C90.4799 158.828 88.6889 159.202 86.2805 159.242L85.8567 133.897ZM113.07 158.795C109.4 158.856 106.426 158.256 104.149 156.993C101.91 155.693 100.752 153.934 100.677 151.717C100.661 150.761 101.03 149.952 101.783 149.29C102.575 148.626 103.831 148.261 105.551 148.194C105.923 149.87 106.748 151.157 108.024 152.053C109.301 152.911 110.837 153.325 112.634 153.295C114.584 153.263 116.109 152.989 117.209 152.473C118.309 151.958 118.851 151.203 118.834 150.209C118.819 149.291 118.348 148.535 117.42 147.938C116.53 147.341 114.762 146.759 112.114 146.191C109.235 145.551 106.987 144.901 105.37 144.239C103.791 143.577 102.61 142.718 101.828 141.66C101.045 140.602 100.64 139.194 100.61 137.436C100.569 134.989 101.568 133.003 103.608 131.478C105.647 129.952 108.464 129.159 112.057 129.099C115.536 129.041 118.433 129.624 120.748 130.847C123.062 132.032 124.236 133.657 124.271 135.721C124.288 136.753 123.919 137.524 123.162 138.034C122.406 138.544 121.149 138.832 119.391 138.9C118.983 137.377 118.238 136.242 117.155 135.496C116.071 134.749 114.555 134.392 112.605 134.425C111.153 134.449 109.895 134.719 108.833 135.233C107.809 135.748 107.304 136.406 107.317 137.209C107.331 138.05 107.782 138.692 108.669 139.137C109.556 139.581 111.093 140.014 113.279 140.436C117.576 141.282 120.693 142.454 122.63 143.951C124.606 145.447 125.615 147.514 125.659 150.152C125.702 152.714 124.589 154.778 122.321 156.345C120.091 157.912 117.008 158.729 113.07 158.795ZM142.013 158.311C138.916 158.362 136.607 157.502 135.086 155.731C133.565 153.959 132.781 151.658 132.734 148.829L132.496 134.608L126.59 134.707C126.56 132.91 126.882 131.567 127.555 130.676C128.228 129.785 129.139 129.33 130.285 129.311L132.522 129.273L132.442 124.514C132.416 122.947 132.971 121.828 134.107 121.159C135.242 120.452 136.976 120.079 139.308 120.04L139.46 129.157L147.087 129.03C147.119 130.941 146.779 132.324 146.066 133.177C145.354 133.992 144.194 134.413 142.589 134.44L139.664 134.488L139.897 148.423C139.919 149.761 140.184 150.712 140.691 151.278C141.235 151.842 142.138 152.114 143.4 152.093C144.738 152.07 146.07 151.685 147.396 150.936C147.784 151.274 148.097 151.708 148.335 152.24C148.573 152.733 148.696 153.247 148.705 153.782C148.724 154.929 148.149 155.971 146.979 156.908C145.809 157.807 144.153 158.275 142.013 158.311Z" fill="white"/>
<path d="M30.1154 111.429C26.9619 111.482 24.205 111.142 21.8445 110.411C19.484 109.679 17.6614 108.623 16.3766 107.243C15.1262 105.826 14.4852 104.172 14.4536 102.28C14.4055 99.4072 16.3262 97.9381 20.2154 97.873C20.4001 100.534 21.3273 102.533 22.9969 103.872C24.7016 105.211 27.0606 105.855 30.0739 105.804C32.5617 105.763 34.4817 105.31 35.8342 104.446C37.186 103.548 37.8491 102.327 37.8233 100.786C37.8063 99.7695 37.5298 98.9504 36.9936 98.3285C36.4569 97.6716 35.5538 97.1084 34.2842 96.639C33.014 96.1345 31.1657 95.6396 28.7393 95.1545C25.292 94.406 22.5616 93.5579 20.548 92.6102C18.5695 91.662 17.1308 90.5119 16.232 89.1601C15.3326 87.7732 14.8656 86.0461 14.831 83.9788C14.7976 81.9816 15.3465 80.22 16.4776 78.694C17.6437 77.1675 19.2884 75.9659 21.4117 75.0892C23.57 74.212 26.0507 73.7499 28.8538 73.703C31.5517 73.6579 33.958 73.9857 36.0726 74.6864C38.2217 75.3514 39.9027 76.3222 41.1157 77.5987C42.3637 78.8746 43.0018 80.3535 43.0299 82.0353C43.0733 84.6282 41.2213 86.0085 37.4739 86.1763C37.2233 83.7621 36.4228 82.0056 35.0726 80.9066C33.7224 79.8077 31.6808 79.281 28.9478 79.3267C26.6002 79.366 24.8022 79.7816 23.5537 80.5735C22.3052 81.3654 21.6927 82.4622 21.7161 83.8637C21.7325 84.8448 21.9915 85.6641 22.4932 86.3216C22.9943 86.9441 23.8271 87.4909 24.9915 87.9622C26.1554 88.3983 27.8101 88.8438 29.9557 89.2986C33.5781 90.0442 36.449 90.9074 38.5683 91.8884C40.687 92.8343 42.2314 94.0177 43.2014 95.4384C44.1709 96.8241 44.6729 98.5506 44.7075 100.618C44.7432 102.755 44.1614 104.64 42.962 106.272C41.797 107.869 40.1007 109.124 37.8728 110.037C35.6795 110.915 33.0937 111.379 30.1154 111.429ZM47.4658 88.4276C47.4441 87.1311 47.9343 86.054 48.9364 85.1961C49.9378 84.3031 51.4372 83.8399 53.4344 83.8066L53.4818 86.6447C52.8996 87.4605 52.5747 87.9391 52.5069 88.0804L52.7207 88.2871C53.8173 86.7968 55.0252 85.6726 56.3444 84.9145C57.698 84.1208 59.3734 83.7073 61.3706 83.6739C63.2977 83.6416 65.0038 84.0162 66.4889 84.7975C68.0084 85.5431 69.2007 86.6272 70.0656 88.0497C70.9305 89.4722 71.3785 91.112 71.4096 92.969L71.5484 101.273C71.5801 103.165 71.1349 104.837 70.2128 106.29C69.3259 107.742 68.0829 108.866 66.4841 109.664C64.8852 110.462 63.0696 110.878 61.0374 110.912C59.741 110.934 58.3876 110.693 56.9773 110.191C55.6014 109.653 54.4325 108.919 53.4707 107.989L53.2648 108.256C53.516 108.602 53.9075 108.963 54.4396 109.34L54.5696 117.118C54.6188 120.062 52.436 121.57 48.0211 121.644L47.4658 88.4276ZM59.6811 105.257C61.398 105.228 62.7233 104.838 63.657 104.086C64.5908 103.335 65.0465 102.293 65.0242 100.962L64.8995 93.4985C64.8766 92.132 64.3863 91.1062 63.4286 90.4213C62.5053 89.7007 61.1676 89.3551 59.4157 89.3844C57.839 89.4107 56.549 89.8178 55.5458 90.6057C54.542 91.3585 54.0494 92.2955 54.0682 93.4167L54.2018 101.405C54.2199 102.492 54.726 103.412 55.7199 104.166C56.7489 104.92 58.0693 105.284 59.6811 105.257ZM87.9919 88.9066C85.9247 88.9412 84.2522 89.5299 82.9745 90.6728C81.6962 91.7807 81.0709 93.158 81.0984 94.8048L81.2952 106.578C81.3187 107.979 80.8101 109.004 79.7695 109.652C78.7289 110.301 77.0873 110.644 74.8449 110.681L74.474 88.5017C74.4471 86.89 74.9344 85.6376 75.9358 84.7447C76.9723 83.8511 78.5417 83.3868 80.6441 83.3516L80.6959 86.4525C80.1803 87.057 79.7695 87.6421 79.4635 88.208L79.7824 88.413C81.9336 85.0124 84.6735 83.2843 88.0021 83.2286C89.5088 83.2034 90.6543 83.5873 91.4386 84.3803C92.2223 85.1383 92.6242 86.1129 92.6441 87.3042C92.6593 88.2152 92.4269 88.9902 91.9469 89.6291C90.9921 89.1193 89.6738 88.8785 87.9919 88.9066ZM101.792 110.231C100.005 110.26 98.3526 109.938 96.8342 109.262C95.3509 108.586 94.1429 107.607 93.2102 106.326C92.312 105.009 91.8476 103.44 91.8172 101.618C91.7867 99.7957 92.2333 98.2111 93.1571 96.8638C94.0803 95.4815 95.3419 94.4265 96.942 93.6988C98.5765 92.9354 100.375 92.5373 102.337 92.5045C103.949 92.4776 105.39 92.7164 106.66 93.2209C107.965 93.6897 109.168 94.4231 110.272 95.4211L110.53 95.1539C110.209 94.8438 109.658 94.3799 108.877 93.7621L108.859 92.7109C108.835 91.2744 108.308 90.1441 107.278 89.3202C106.248 88.4962 104.822 88.0995 103 88.13C99.7413 88.1844 97.3611 89.4159 95.8592 91.8243C95.0843 91.5919 94.4296 91.2173 93.8952 90.7005C93.3603 90.1487 93.0875 89.5574 93.077 88.9267C93.0594 87.8756 93.5163 86.9041 94.4477 86.0123C95.3791 85.1205 96.6463 84.3984 98.2493 83.8459C99.8523 83.2933 101.6 83.0013 103.492 82.9696C107.206 82.9075 110.094 83.7355 112.155 85.4534C114.216 87.1363 115.272 89.4669 115.321 92.4452L115.541 105.585C115.567 107.126 115.095 108.256 114.126 108.973C113.156 109.69 111.62 110.066 109.518 110.101L109.482 107.947C110.068 107.341 110.463 106.896 110.669 106.612L110.454 106.353C109.319 107.599 108.09 108.548 106.769 109.201C105.483 109.853 103.824 110.197 101.792 110.231ZM103.394 105.42C105.216 105.389 106.629 105.015 107.634 104.297C108.638 103.58 109.129 102.573 109.108 101.276C109.087 100.015 108.544 99.0249 107.481 98.3066C106.453 97.5878 105.062 97.2431 103.31 97.2724C101.699 97.2993 100.426 97.6886 99.4922 98.4402C98.5929 99.1562 98.1541 100.162 98.1758 101.459C98.198 102.79 98.6705 103.799 99.5932 104.484C100.515 105.135 101.782 105.447 103.394 105.42ZM129.93 109.76C127.652 109.798 125.631 109.429 123.866 108.652C122.1 107.841 120.714 106.707 119.708 105.252C118.702 103.797 118.184 102.141 118.153 100.284L118.03 92.9256C117.997 90.9284 118.457 89.1508 119.413 87.5927C120.368 86.0346 121.715 84.8204 123.453 83.9502C125.19 83.045 127.18 82.5736 129.422 82.5361C131.524 82.501 133.386 82.7677 135.008 83.3364C136.665 83.9046 137.958 84.7241 138.887 85.7951C139.816 86.831 140.292 88.0497 140.315 89.4513C140.333 90.5374 139.927 91.4204 139.098 92.1002C138.268 92.78 137.17 93.1313 135.803 93.1542C135.418 93.1606 135.137 93.1478 134.961 93.1157C134.936 91.609 134.425 90.4084 133.429 89.5138C132.468 88.6186 131.216 88.1839 129.675 88.2097C128.133 88.2355 126.879 88.6945 125.913 89.5869C124.981 90.4787 124.527 91.6429 124.551 93.0794L124.662 99.7017C124.684 101.033 125.193 102.111 126.188 102.936C127.183 103.725 128.451 104.107 129.993 104.081C131.534 104.055 132.788 103.579 133.754 102.651C134.719 101.689 135.19 100.49 135.166 99.0529C135.375 99.0144 135.673 98.9919 136.058 98.9855C137.425 98.9626 138.534 99.2595 139.385 99.8761C140.237 100.493 140.672 101.344 140.69 102.43C140.713 103.832 140.261 105.084 139.333 106.186C138.44 107.252 137.175 108.114 135.539 108.773C133.902 109.396 132.032 109.725 129.93 109.76ZM143.184 76.8385C143.157 75.2267 143.697 73.9735 144.803 73.0788C145.91 72.1841 147.514 71.7191 149.617 71.684L149.845 85.349C149.398 85.8471 148.987 86.4148 148.612 87.0519L148.931 87.2569C151.292 83.8528 154.347 82.1194 158.096 82.0567C159.883 82.0268 161.467 82.4034 162.847 83.1864C164.227 83.9695 165.296 85.0556 166.056 86.4448C166.85 87.8335 167.262 89.4038 167.291 91.1557L167.525 105.136C167.548 106.538 167.022 107.563 165.946 108.212C164.871 108.86 163.229 109.203 161.022 109.24L160.737 92.2116C160.715 90.8801 160.294 89.8007 159.474 88.9732C158.689 88.1452 157.543 87.7438 156.036 87.769C154.25 87.7988 152.787 88.384 151.65 89.5246C150.512 90.6301 149.956 92.0063 149.984 93.6531L150.181 105.426C150.204 106.828 149.678 107.853 148.602 108.502C147.527 109.15 145.903 109.493 143.73 109.529L143.184 76.8385Z" fill="white"/>
<defs>
<linearGradient id="paint0_linear_84_24" x1="0.403809" y1="89.874" x2="186.641" y2="89.874" gradientUnits="userSpaceOnUse">
<stop stop-color="#D9643A"/>
<stop offset="1" stop-color="#E35D5B"/>
</linearGradient>
</defs>
</svg>
